<svg width="185" height="57" viewBox="0 0 185 57" fill="none" xmlns="http://www.w3.org/2000/svg">
<g clip-path="url(#clip0_87_7681)">
<path fill-rule="evenodd" clip-rule="evenodd" d="M115.081 44.2937C104.389 52.2533 88.8903 56.5 75.5466 56.5C56.8367 56.5 39.9929 49.5111 27.2499 37.8873C26.2488 36.9732 27.1458 35.7275 28.3472 36.4394C42.0994 44.5202 59.1033 49.3817 76.668 49.3817C88.5139 49.3817 101.545 46.9065 113.527 41.77C115.337 40.9934 116.851 42.9672 115.081 44.2937Z" fill="#FF9900"/>
<path fill-rule="evenodd" clip-rule="evenodd" d="M119.526 39.1573C118.165 37.3939 110.492 38.3241 107.048 38.7367C105.998 38.8661 105.838 37.9439 106.783 37.2806C112.895 32.9369 122.922 34.1907 124.092 35.6467C125.261 37.1108 123.787 47.2624 118.045 52.1077C117.164 52.8519 116.323 52.4556 116.715 51.4687C118.005 48.2169 120.896 40.9288 119.526 39.1573Z" fill="#FF9900"/>
<path fill-rule="evenodd" clip-rule="evenodd" d="M107.288 6.61526V2.39282C107.288 1.75379 107.768 1.32507 108.345 1.32507H127.063C127.664 1.32507 128.144 1.76188 128.144 2.39282V6.00859C128.136 6.61526 127.632 7.40798 126.735 8.66177L117.035 22.6476C120.64 22.5586 124.444 23.1006 127.712 24.9611C128.449 25.3817 128.649 25.9964 128.705 26.6031V31.1087C128.705 31.7234 128.032 32.4433 127.327 32.0713C121.569 29.0217 113.92 28.6901 107.552 32.1036C106.903 32.4595 106.223 31.7477 106.223 31.1329V26.8539C106.223 26.1663 106.231 24.9934 106.911 23.9499L118.149 7.67492H108.369C107.768 7.67492 107.288 7.2462 107.288 6.61526Z" fill="#1E2532"/>
<path fill-rule="evenodd" clip-rule="evenodd" d="M39.0078 32.9611H33.3131C32.7685 32.9207 32.3359 32.5082 32.2959 31.9824V2.46571C32.2959 1.87522 32.7845 1.40606 33.3932 1.40606H38.7034C39.2561 1.43031 39.6966 1.85904 39.7366 2.39291V6.25135H39.8408C41.2264 2.52233 43.8294 0.783203 47.3376 0.783203C50.9017 0.783203 53.1284 2.52233 54.7302 6.25135C56.1079 2.52233 59.2395 0.783203 62.5955 0.783203C64.9823 0.783203 67.5933 1.77815 69.1872 4.0107C70.9893 6.49402 70.6209 10.1017 70.6209 13.2645L70.6129 31.8934C70.6129 32.4839 70.1243 32.9611 69.5156 32.9611H63.8289C63.2603 32.9207 62.8037 32.4596 62.8037 31.8934V16.2493C62.8037 15.0036 62.9158 11.8975 62.6435 10.7165C62.219 8.73467 60.9455 8.17652 59.2956 8.17652C57.918 8.17652 56.4763 9.10676 55.8916 10.5951C55.3069 12.0835 55.363 14.5749 55.363 16.2493V31.8934C55.363 32.4839 54.8744 32.9611 54.2657 32.9611H48.579C48.0023 32.9207 47.5538 32.4596 47.5538 31.8934L47.5458 16.2493C47.5458 12.9571 48.0824 8.11181 44.0377 8.11181C39.9449 8.11181 40.1051 12.8358 40.1051 16.2493V31.8934C40.1051 32.4839 39.6165 32.9611 39.0078 32.9611" fill="#1E2532"/>
<path fill-rule="evenodd" clip-rule="evenodd" d="M144.259 0.783203C152.709 0.783203 157.283 8.11181 157.283 17.4303C157.283 26.4333 152.229 33.5759 144.259 33.5759C135.962 33.5759 131.444 26.2473 131.444 17.1148C131.444 7.92576 136.018 0.783203 144.259 0.783203ZM144.307 6.80949C140.111 6.80949 139.846 12.585 139.846 16.1846C139.846 19.7923 139.79 27.493 144.259 27.493C148.673 27.493 148.881 21.2807 148.881 17.495C148.881 15.0036 148.777 12.0269 148.032 9.66489C147.391 7.6103 146.118 6.80949 144.307 6.80949Z" fill="#1E2532"/>
<path fill-rule="evenodd" clip-rule="evenodd" d="M168.24 32.9611H162.569C162 32.9207 161.544 32.4596 161.544 31.8934L161.536 2.36864C161.584 1.82668 162.056 1.40606 162.633 1.40606H167.911C168.408 1.43031 168.816 1.77006 168.928 2.23113V6.74477H169.032C170.626 2.70838 172.861 0.783203 176.794 0.783203C179.349 0.783203 181.839 1.71344 183.441 4.26146C184.931 6.62344 184.931 10.5951 184.931 13.4505V32.0309C184.867 32.5486 184.394 32.9611 183.834 32.9611H178.123C177.602 32.9207 177.17 32.5324 177.114 32.0309V15.9986C177.114 12.7711 177.482 8.0471 173.55 8.0471C172.164 8.0471 170.891 8.98542 170.258 10.4091C169.457 12.2129 169.353 14.0087 169.353 15.9986V31.8934C169.345 32.4839 168.848 32.9611 168.24 32.9611" fill="#1E2532"/>
<path fill-rule="evenodd" clip-rule="evenodd" d="M92.3666 18.862C92.3666 21.1026 92.4227 22.9712 91.3014 24.9611C90.3963 26.5789 88.9546 27.5738 87.3607 27.5738C85.1742 27.5738 83.8927 25.8913 83.8927 23.408C83.8927 18.5061 88.2418 17.6163 92.3666 17.6163V18.862ZM98.1094 32.8802C97.7329 33.2199 97.1883 33.2442 96.7638 33.0177C94.8736 31.4322 94.5292 30.6961 93.4959 29.1835C90.3723 32.4029 88.1537 33.3655 84.1089 33.3655C79.3113 33.3655 75.5869 30.3807 75.5869 24.4029C75.5869 19.7356 78.0859 16.5566 81.658 15.0035C84.7497 13.6284 89.0667 13.3857 92.3666 13.0056V12.2614C92.3666 10.8943 92.4707 9.27653 91.6698 8.09555C90.981 7.03589 89.6514 6.59909 88.474 6.59909C86.3035 6.59909 84.3732 7.72345 83.9007 10.0531C83.8046 10.5708 83.4281 11.0804 82.9075 11.1046L77.389 10.5061C76.9245 10.4009 76.4039 10.0207 76.54 9.30081C77.8055 2.53843 83.8606 0.5 89.275 0.5C92.0462 0.5 95.6665 1.24419 97.8531 3.3635C100.624 5.97623 100.36 9.46258 100.36 13.2563V22.2189C100.36 24.9125 101.465 26.0935 102.507 27.5495C102.867 28.0672 102.947 28.6901 102.482 29.0783C101.321 30.0571 99.2547 31.8771 98.1173 32.8963L98.1093 32.8801" fill="#1E2532"/>
<path fill-rule="evenodd" clip-rule="evenodd" d="M17.7109 18.8622C17.7109 21.1029 17.7669 22.9714 16.6456 24.9613C15.7405 26.5791 14.3069 27.574 12.705 27.574C10.5184 27.574 9.24491 25.8915 9.24491 23.4082C9.24491 18.5063 13.594 17.6165 17.7109 17.6165V18.8622ZM23.4536 32.8804C23.0771 33.2201 22.5325 33.2444 22.108 33.0179C20.2178 31.4325 19.8814 30.6964 18.8402 29.1837C15.7165 32.4032 13.5059 33.3657 9.45315 33.3657C4.66353 33.3657 0.931152 30.3809 0.931152 24.4032C0.931152 19.7358 3.43809 16.5569 7.00228 15.0038C10.0939 13.6286 14.411 13.386 17.7109 13.0058V12.2616C17.7109 10.8946 17.815 9.27678 17.022 8.09579C16.3252 7.03613 14.9957 6.59933 13.8263 6.59933C11.6557 6.59933 9.71747 7.7237 9.24491 10.0533C9.1488 10.571 8.77235 11.0806 8.25976 11.1049L2.73327 10.5063C2.26872 10.4012 1.75612 10.021 1.88427 9.30105C3.15777 2.53867 9.20486 0.500244 14.6192 0.500244C17.3905 0.500244 21.0107 1.24443 23.1973 3.36374C25.9685 5.97648 25.7042 9.46283 25.7042 13.2566V22.2191C25.7042 24.9128 26.8095 26.0938 27.8508 27.5498C28.2192 28.0675 28.2993 28.6903 27.8347 29.0786C26.6734 30.0574 24.6069 31.8774 23.4696 32.8966L23.4536 32.8804" fill="#1E2532"/>
</g>
<defs>
<clipPath id="clip0_87_7681">
<rect width="184" height="56" fill="white" transform="translate(0.931152 0.5)"/>
</clipPath>
</defs>
</svg>
