<svg width="185" height="59" viewBox="0 0 185 59" fill="none" xmlns="http://www.w3.org/2000/svg">
<g clip-path="url(#clip0_87_7673)">
<path d="M23.9476 21.1955V27.3909H38.8096C38.4151 30.8182 37.2314 33.4545 35.3901 35.1682C33.2857 37.2773 29.8661 39.65 23.9476 39.65C14.8725 39.65 7.77032 32.2682 7.77032 23.1727C7.77032 14.0773 14.741 6.69545 23.9476 6.69545C28.8139 6.69545 32.4966 8.67273 35.127 11.1773L39.4673 6.82727C35.7846 3.26818 30.7868 0.5 23.9476 0.5C11.453 0.5 0.931152 10.65 0.931152 23.1727C0.931152 35.6955 11.453 45.8455 23.9476 45.8455C30.6552 45.8455 35.7846 43.6045 39.7303 39.5182C43.8075 35.4318 45.1227 29.6318 45.1227 25.0182C45.1227 23.5682 44.9912 22.25 44.8597 21.1955H23.9476Z" fill="#4285F4"/>
<path d="M63.5357 16.0546C55.5128 16.0546 48.8052 22.25 48.8052 30.6864C48.8052 39.1227 55.3813 45.3182 63.5357 45.3182C71.6901 45.3182 78.2662 39.2546 78.2662 30.8182C78.2662 22.25 71.6901 16.0546 63.5357 16.0546ZM63.5357 39.65C59.0639 39.65 55.2498 35.9591 55.2498 30.8182C55.2498 25.5455 59.0639 21.9864 63.5357 21.9864C68.0075 21.9864 71.8216 25.5455 71.8216 30.8182C71.8216 35.9591 68.0075 39.65 63.5357 39.65Z" fill="#EA4335"/>
<path d="M135.479 19.35H135.216C133.769 17.6364 131.007 16.0546 127.456 16.0546C120.09 16.0546 113.777 22.3818 113.777 30.6864C113.777 38.8591 120.09 45.3182 127.456 45.3182C131.007 45.3182 133.769 43.7364 135.216 42.0227H135.479V44.1318C135.479 49.6682 132.454 52.7 127.719 52.7C123.773 52.7 121.406 49.9318 120.353 47.4273L114.83 49.8C116.408 53.6227 120.748 58.5 127.85 58.5C135.347 58.5 141.792 54.0182 141.792 43.2091V16.8455H135.742V19.35H135.479ZM128.113 39.65C123.642 39.65 120.353 35.8273 120.353 30.8182C120.353 25.6773 123.773 21.9864 128.113 21.9864C132.454 21.9864 135.873 25.8091 135.873 30.95C136.005 35.9591 132.585 39.65 128.113 39.65Z" fill="#4285F4"/>
<path d="M96.2852 16.0546C88.2623 16.0546 81.5547 22.25 81.5547 30.6864C81.5547 39.1227 88.1308 45.3182 96.2852 45.3182C104.44 45.3182 111.016 39.2546 111.016 30.8182C111.016 22.25 104.44 16.0546 96.2852 16.0546ZM96.2852 39.65C91.8134 39.65 87.9993 35.9591 87.9993 30.8182C87.9993 25.5455 91.8134 21.9864 96.2852 21.9864C100.757 21.9864 104.571 25.5455 104.571 30.8182C104.571 35.9591 100.757 39.65 96.2852 39.65Z" fill="#FBBC05"/>
<path d="M146.658 1.15906H152.971V45.45H146.658V1.15906Z" fill="#34A853"/>
<path d="M172.437 39.65C169.149 39.65 166.913 38.2 165.334 35.1682L184.931 27.1273L184.274 25.4137C183.09 22.1182 179.276 16.0546 171.779 16.0546C164.282 16.0546 157.969 21.9864 157.969 30.6864C157.969 38.8591 164.151 45.3182 172.437 45.3182C179.144 45.3182 182.959 41.2318 184.668 38.8591L179.67 35.5637C177.961 38.0682 175.725 39.65 172.437 39.65ZM172.042 21.5909C174.673 21.5909 176.908 22.9091 177.566 24.7546L164.414 30.2909C164.282 24.2273 168.754 21.5909 172.042 21.5909Z" fill="#EA4335"/>
</g>
<defs>
<clipPath id="clip0_87_7673">
<rect width="184" height="58" fill="white" transform="translate(0.931152 0.5)"/>
</clipPath>
</defs>
</svg>
