<svg width="184" height="37" viewBox="0 0 184 37" fill="none" xmlns="http://www.w3.org/2000/svg">
<path d="M11.7165 35.7847H4.78842V18.4734H0.0688477V12.8371H4.78823V8.82656C4.78823 4.07402 6.87563 0.665527 13.785 0.665527C15.2463 0.665527 17.5406 0.960764 17.5406 0.960764V6.19431H15.1309C12.6756 6.19431 11.7169 6.9429 11.7169 9.01251V12.8371H17.4486L16.9382 18.4734H11.7167L11.7165 35.7847ZM27.6133 12.3867C27.5124 12.3867 27.4085 12.3904 27.3057 12.393C20.8815 12.393 17.9423 17.2366 17.9423 24.1122C17.9423 32.7735 21.7549 36.2401 27.3559 36.2401C30.5604 36.2401 32.6659 34.8881 33.9455 32.3652V35.7871H40.5352V12.8395H33.9455V16.3686C32.9006 14.0981 30.7364 12.4136 27.6133 12.3867ZM29.2889 17.8092C31.987 17.8092 33.6065 19.6956 33.6065 22.9043L33.6127 26.1816C33.6127 28.3443 32.2751 30.8744 29.2889 30.8744C24.6978 30.8744 24.8204 25.9055 24.8204 24.2506C24.8204 18.6836 27.2665 17.8092 29.2889 17.8092ZM43.1964 24.3145C43.1964 21.526 43.0633 12.4017 54.9232 12.4017C59.6839 12.4017 61.6718 13.9189 61.6718 13.9189L60.0741 18.8862C60.0741 18.8862 58.0887 17.7904 55.5018 17.7904C52.1884 17.7904 50.0742 19.7157 50.0742 23.1032L50.0778 25.5321C50.0778 28.7871 52.1178 30.9599 55.5086 30.9599C57.8653 30.9599 60.0375 29.8538 60.0375 29.8538L61.6312 34.7173C61.6312 34.7173 59.8135 36.2441 54.9564 36.2441C43.664 36.2441 43.1966 28.0579 43.1966 24.3145H43.1964ZM100.309 12.393C106.734 12.393 109.719 17.2366 109.719 24.1122C109.719 32.7735 105.906 36.2401 100.305 36.2401C97.1009 36.2401 94.732 34.8883 93.4523 32.3652V35.7871L86.9456 35.7845V1.36326L93.8541 0.759332V16.0576C94.8511 13.3812 98.1279 12.393 100.309 12.393H100.309ZM98.3725 17.8092C95.6743 17.8092 93.8541 19.6956 93.8541 22.9043L93.8476 26.1816C93.8436 28.3443 95.1082 30.8744 98.3725 30.8744C102.964 30.8744 102.841 25.9055 102.841 24.2506C102.841 18.6836 100.395 17.8092 98.3725 17.8092ZM73.6586 12.412C66.3721 12.412 62.5253 16.394 62.5253 23.4705V24.7852C62.5253 33.9698 67.9274 36.3344 74.3677 36.3344C80.6277 36.3344 83.4612 34.5794 83.4612 34.5794L82.1685 29.9058C82.1685 29.9058 78.8354 31.3272 75.196 31.3272C71.4232 31.3272 69.8006 30.3634 69.3847 26.7291H84.0135V22.9797C84.0135 15.3035 79.6963 12.4118 73.6584 12.4118L73.6586 12.412ZM73.8342 17.0919C76.3564 17.0919 77.9908 18.6422 77.901 22.2375H69.3974C69.5448 18.4535 71.3074 17.0921 73.8342 17.0921V17.0919ZM123.494 12.3805C116.012 12.3805 112.072 16.607 112.072 24.1813C112.072 34.5735 118.863 36.2464 123.507 36.2464C130.305 36.2464 134.828 32.5776 134.828 24.2756C134.828 15.6347 129.743 12.3805 123.494 12.3805ZM123.4 17.828C126.69 17.828 127.994 20.2962 127.994 23.1057V25.5213C127.994 28.9248 126.17 30.8934 123.388 30.8934C120.786 30.8934 118.957 29.0519 118.957 25.5213V23.1057C118.957 19.3403 121.133 17.828 123.4 17.828ZM148.591 12.3805C141.109 12.3805 137.169 16.607 137.169 24.1813C137.169 34.5735 143.96 36.2464 148.604 36.2464C155.402 36.2464 159.925 32.5776 159.925 24.2756C159.925 15.6347 154.839 12.3805 148.591 12.3805ZM148.497 17.828C151.787 17.828 153.091 20.2962 153.091 23.1057V25.5213C153.091 28.9248 151.267 30.8934 148.485 30.8934C145.883 30.8934 144.054 29.0519 144.054 25.5213V23.1057C144.054 19.3403 146.23 17.828 148.497 17.828ZM162.536 35.7847V1.36326L169.464 0.759332V23.8307L176.338 12.8371H183.655L176.485 24.2233L183.931 35.7847H176.594L169.464 24.5587V35.7847H162.536Z" fill="#1877F2"/>
</svg>
