<svg width="185" height="63" viewBox="0 0 185 63" fill="none" xmlns="http://www.w3.org/2000/svg">
<g clip-path="url(#clip0_87_7668)">
<path d="M9.16256 38.1979V0.5H0.0688477V38.6721C0.0688477 53.0163 10.1074 62.5 23.0984 62.5C29.4758 62.5 35.0265 60.0105 39.16 55.7428V61.4331H48.1356V0.5H39.0419V38.1979C39.0419 47.9187 32.5464 54.4388 24.1613 54.4388C15.6581 54.3203 9.16256 48.0373 9.16256 38.1979ZM57.1112 61.5516H65.7325V55.9799C69.7479 60.1291 75.4167 62.6186 81.5579 62.6186C94.549 62.6186 104.824 52.305 104.824 39.3834C104.824 26.4618 94.549 16.1482 81.5579 16.1482C75.4167 16.1482 69.866 18.6377 65.8506 22.7868V0.5H57.1112V61.5516ZM65.7325 39.3834C65.7325 30.7294 72.5823 23.9723 80.9674 23.9723C89.3525 23.9723 96.2024 30.7294 96.2024 39.3834C96.2024 47.9187 89.3525 54.7945 80.9674 54.7945C72.4642 54.7945 65.7325 47.9187 65.7325 39.3834ZM110.02 39.2648C110.02 52.5421 120.295 62.5 133.522 62.5C141.553 62.5 148.166 58.9436 152.654 53.0163L146.277 48.2744C142.97 52.6606 138.6 54.7945 133.522 54.7945C126.082 54.7945 120.059 49.3413 118.878 42.1099H154.898V39.2648C154.898 25.9876 145.568 16.1482 132.813 16.1482C119.822 16.1482 110.02 26.6989 110.02 39.2648ZM132.577 23.8537C139.073 23.8537 144.505 28.3585 146.041 35.2342H118.996C120.649 28.3585 126.082 23.8537 132.577 23.8537ZM184.069 24.9207V16.7409H180.998C176.156 16.7409 172.613 18.9933 170.369 22.5497V17.0966H161.866V61.5516H170.605V36.1826C170.605 29.3069 174.739 24.8021 180.526 24.8021H184.069V24.9207Z" fill="#1E2532"/>
</g>
<defs>
<clipPath id="clip0_87_7668">
<rect width="184" height="62" fill="white" transform="translate(0.0688477 0.5)"/>
</clipPath>
</defs>
</svg>
