<svg width="54" height="42" viewBox="0 0 54 42" fill="none" xmlns="http://www.w3.org/2000/svg">
<path d="M48.9959 3.537C52.0859 6.819 53.7449 10.5 53.7449 16.467C53.7449 26.967 46.3739 36.378 35.6549 41.031L32.9759 36.897C42.9809 31.485 44.9369 24.462 45.7169 20.034C44.1059 20.868 41.9969 21.159 39.9299 20.967C34.5179 20.466 30.2519 16.023 30.2519 10.5C30.2519 7.71523 31.3581 5.04451 33.3273 3.07538C35.2964 1.10625 37.9671 0 40.7519 0C43.9709 0 47.0489 1.47 48.9959 3.537ZM18.9959 3.537C22.0859 6.819 23.7449 10.5 23.7449 16.467C23.7449 26.967 16.3739 36.378 5.65488 41.031L2.97588 36.897C12.9809 31.485 14.9369 24.462 15.7169 20.034C14.1059 20.868 11.9969 21.159 9.92988 20.967C4.51788 20.466 0.254883 16.023 0.254883 10.5C0.254883 7.71523 1.36113 5.04451 3.33026 3.07538C5.29939 1.10625 7.97011 0 10.7549 0C13.9739 0 17.0519 1.47 18.9989 3.537H18.9959Z" fill="#FDFEFF"/>
</svg>
